<svg width="166" height="166" viewBox="0 0 166 166" fill="none" xmlns="http://www.w3.org/2000/svg">
<rect width="166" height="166" fill="#EDFAFF"/>
<rect width="54" height="32" transform="translate(56 67)" fill="#EDFAFF"/>
<path d="M75.9453 67.1016H88.8828V83.5078H87.2188C83.1875 83.5078 80.2969 82.8125 78.5469 81.4219C76.8125 80.0312 75.9453 77.6641 75.9453 74.3203V67.1016ZM71.2578 99C68.7266 99 66.4766 98.0625 64.5078 96.1875C62.7734 94.5312 61.4141 92.3281 60.4297 89.5781C59.5234 87.0469 59.0703 84.5391 59.0703 82.0547C59.0703 78.3203 59.9922 75 61.8359 72.0938C63.1484 70.0312 64.875 68.5781 67.0156 67.7344C68.1094 67.3125 69.3281 67.1016 70.6719 67.1016H72.4766V99H71.2578ZM75.9453 92.8828H87.6641V93.5391C87.6641 94.9922 87.1406 96.2188 86.0938 97.2188C84.8125 98.4062 82.9922 99 80.6328 99H75.9453V92.8828Z" fill="#007AFF"/>
<path d="M101.516 83.0508H102.5C105.812 83.0508 107.781 84.5078 108.406 87.4219C108.602 88.3047 108.699 89.3359 108.699 90.5156C108.699 91.6953 108.574 92.8203 108.324 93.8906C108.082 94.9609 107.707 95.875 107.199 96.6328C106.145 98.2109 104.578 99 102.5 99H101.516V83.0508ZM93.2656 83.0508H99.5703V98.9766H93.2656V83.0508Z" fill="#007AFF"/>
</svg>
